# xmcd CD database file
#
# Track frame offsets:
#	150
#	20128
#	59694
#	90354
#	117111
#	147973
#
# Disc length: 2377 seconds
#
# Revision: 0
# Processed by: cddbd v1.5.2PL0 Copyright (c) Steve Scherf et al.
# Submitted via: CDex 1.70beta2
#
DISCID=4e094706
DTITLE=jazzperados - open structure 01
DYEAR=1900
DGENRE=Jazz
TTITLE0=mescalino
TTITLE1=hochwasser
TTITLE2=wmonaizer
TTITLE3=boundaries
TTITLE4=mescalino remix
TTITLE5=hochwasser (erdbeerfeld wildmix)
EXTD=
EXTT0=
EXTT1=
EXTT2=
EXTT3=
EXTT4=
EXTT5=
PLAYORDER=
